<?xml version="1.0" encoding="utf-8"?>
<!-- Generator: Adobe Illustrator 25.2.3, SVG Export Plug-In . SVG Version: 6.00 Build 0)  -->
<svg version="1.1" id="레이어_1" xmlns="http://www.w3.org/2000/svg" xmlns:xlink="http://www.w3.org/1999/xlink" x="0px"
	 y="0px" viewBox="0 0 36.12 25.27" style="enable-background:new 0 0 36.12 25.27;" xml:space="preserve">
<style type="text/css">
	.st0{fill:#212A9B;}
	.st1{fill:#F9F8CA;}
	.st2{fill:#EFEFEF;}
	.st3{fill:#74D1AF;}
	.st4{fill:#8A4CED;}
	.st5{fill:#F76161;}
	.st6{fill:none;stroke:#74D1AF;stroke-width:3;stroke-miterlimit:10;}
	.st7{fill:none;stroke:#8A4CED;stroke-width:12;stroke-miterlimit:10;}
	.st8{clip-path:url(#SVGID_2_);fill:none;stroke:#8A4CED;stroke-width:12;stroke-miterlimit:10;}
	.st9{clip-path:url(#SVGID_4_);fill:none;stroke:#74D1AF;stroke-width:3;stroke-miterlimit:10;}
	.st10{fill:none;stroke:#EFEFEF;stroke-width:3;stroke-linecap:round;stroke-miterlimit:10;}
	.st11{fill:none;stroke:#EFEFEF;stroke-width:3;stroke-miterlimit:10;}
</style>
<g>
	<g>
		<path class="st4" d="M31.92,9.38c-0.01-0.13-0.03-0.26-0.06-0.37c0.05-0.38,0.07-0.79,0.07-1.24C31.94,4.3,31.71,0,28.52,0
			C25.1,0,25.1,4.3,25.1,7.77c0,0.39,0.02,0.74,0.06,1.08c-2.23,0.5-4.74,1.03-7.09,1.03c-2.38,0-4.93-0.56-7.19-1.06
			c0.03-0.33,0.05-0.68,0.05-1.05C10.92,4.3,10.69,0,7.5,0C4.08,0,4.08,4.3,4.08,7.77c0,0.57,0.04,1.09,0.12,1.55
			c0,0.02,0,0.04-0.01,0.06c-0.27,4.28-5.49,5.25-3.89,9.45c1.57,4.12,12.16,6.44,17.76,6.44s16.19-2.32,17.76-6.44
			C37.41,14.63,32.19,13.67,31.92,9.38z"/>
		<g>
			<ellipse class="st2" cx="7.5" cy="3.94" rx="2.46" ry="2.59"/>
		</g>
		<g>
			<ellipse class="st2" cx="28.52" cy="3.94" rx="2.51" ry="2.59"/>
		</g>
		<ellipse cx="7.5" cy="3.77" rx="1.16" ry="1.19"/>
		<ellipse cx="28.47" cy="3.77" rx="1.16" ry="1.19"/>
	</g>
	<path class="st5" d="M2.31,16.08c3.54,1.85,10.62,2.85,14.69,2.77s14.31-1.31,17.23-2.77"/>
</g>
</svg>
